HIERARCHY
ROOT hips
{
  OFFSET 0 10.6860622 2.3727825e-15
  CHANNELS 6 Xposition Yposition Zposition Yrotation Xrotation Zrotation
  JOINT leftUpperLeg
  {
    OFFSET 0.6642549969 -0.9402397400000004 0
    CHANNELS 3 Yrotation Xrotation Zrotation
    JOINT leftLowerLeg
    {
      OFFSET 0 -3.997221335632195 0
      CHANNELS 3 Yrotation Xrotation Zrotation
      JOINT leftFoot
      {
        OFFSET -0.13777839790000004 -4.6145792000000005 -0.22186036399999998
        CHANNELS 3 Yrotation Xrotation Zrotation
        JOINT leftToes
        {
          OFFSET -0.03777410834999995 -0.9130806927000008 0.85230013
          CHANNELS 3 Yrotation Xrotation Zrotation
          End Site
          {
            OFFSET -0.03777410834999995 -0.9130806927000008 0.85230013
          }
        }
      }
    }
  }
  JOINT rightUpperLeg
  {
    OFFSET -0.6642778626 -0.9402397400000004 0
    CHANNELS 3 Yrotation Xrotation Zrotation
    JOINT rightLowerLeg
    {
      OFFSET 0 -3.997221452859387 0
      CHANNELS 3 Yrotation Xrotation Zrotation
      JOINT rightFoot
      {
        OFFSET 0.1377926176 -4.6145792000000005 -0.22185782299999995
        CHANNELS 3 Yrotation Xrotation Zrotation
        JOINT rightToes
        {
          OFFSET 0.037780746850000047 -0.9130806927000008 0.85230167
          CHANNELS 3 Yrotation Xrotation Zrotation
          End Site
          {
            OFFSET 0.037780746850000047 -0.9130806927000008 0.85230167
          }
        }
      }
    }
  }
  JOINT spine
  {
    OFFSET 0 0.13988381660000015 0
    CHANNELS 3 Yrotation Xrotation Zrotation
    JOINT chest
    {
      OFFSET 0 0.6191039003973773 0
      CHANNELS 3 Yrotation Xrotation Zrotation
      JOINT upperChest
      {
        OFFSET 0 0.9855186130586943 0
        CHANNELS 3 Yrotation Xrotation Zrotation
        JOINT leftShoulder
        {
          OFFSET 0.1807663869 1.5087829790000005 0
          CHANNELS 3 Yrotation Xrotation Zrotation
          JOINT leftUpperArm
          {
            OFFSET 0.5985063006419806 0 0
            CHANNELS 3 Yrotation Xrotation Zrotation
            JOINT leftLowerArm
            {
              OFFSET 2.2993332369501065 0 0
              CHANNELS 3 Yrotation Xrotation Zrotation
              JOINT leftHand
              {
                OFFSET 2.395047042602395 0 0
                CHANNELS 3 Yrotation Xrotation Zrotation
                JOINT leftIndexProximal
                {
                  OFFSET 0.5766295810000004 0.04556643899499946 0.17265095988184
                  CHANNELS 3 Yrotation Xrotation Zrotation
                  JOINT leftIndexIntermediate
                  {
                    OFFSET 0.2957229000000008 -0.019352197700001517 -0.007932640616999987
                    CHANNELS 3 Yrotation Xrotation Zrotation
                    JOINT leftIndexDistal
                    {
                      OFFSET 0.19008243099999922 -0.012484908149998475 -0.002786250786000012
                      CHANNELS 3 Yrotation Xrotation Zrotation
                      End Site
                      {
                        OFFSET 0.19008243099999922 -0.012484908149998475 -0.002786250786000012
                      }
                    }
                  }
                }
                JOINT leftMiddleProximal
                {
                  OFFSET 0.5834975091000001 0.0524350405149987 0.02204081888183999
                  CHANNELS 3 Yrotation Xrotation Zrotation
                  JOINT leftMiddleIntermediate
                  {
                    OFFSET 0.33880573540000003 -0.019871473270000717 -0.00000971183179999946
                    CHANNELS 3 Yrotation Xrotation Zrotation
                    JOINT leftMiddleDistal
                    {
                      OFFSET 0.20676022730000088 -0.012221336379999448 0.0001471936708000235
                      CHANNELS 3 Yrotation Xrotation Zrotation
                      End Site
                      {
                        OFFSET 0.20676022730000088 -0.012221336379999448 0.0001471936708000235
                      }
                    }
                  }
                }
                JOINT leftLittleProximal
                {
                  OFFSET 0.5344154683999995 -0.012880921405001189 -0.24414037221816004
                  CHANNELS 3 Yrotation Xrotation Zrotation
                  JOINT leftLittleIntermediate
                  {
                    OFFSET 0.21758961730000093 -0.011650919939999227 0.011893592810000034
                    CHANNELS 3 Yrotation Xrotation Zrotation
                    JOINT leftLittleDistal
                    {
                      OFFSET 0.1475273964999999 -0.008152365682999818 0.006001092492999946
                      CHANNELS 3 Yrotation Xrotation Zrotation
                      End Site
                      {
                        OFFSET 0.1475273964999999 -0.008152365682999818 0.006001092492999946
                      }
                    }
                  }
                }
                JOINT leftRingProximal
                {
                  OFFSET 0.5799399463000003 0.026911854694997794 -0.12150566991816003
                  CHANNELS 3 Yrotation Xrotation Zrotation
                  JOINT leftRingIntermediate
                  {
                    OFFSET 0.26167887460000006 -0.013480186499999602 0.010996293000000053
                    CHANNELS 3 Yrotation Xrotation Zrotation
                    JOINT leftRingDistal
                    {
                      OFFSET 0.17667108799999987 -0.008990287899999228 0.0055541023999999065
                      CHANNELS 3 Yrotation Xrotation Zrotation
                      End Site
                      {
                        OFFSET 0.17667108799999987 -0.008990287899999228 0.0055541023999999065
                      }
                    }
                  }
                }
                JOINT leftThumbProximal
                {
                  OFFSET 0.11018806699999972 -0.09448718900500053 0.17047963138184
                  CHANNELS 3 Yrotation Xrotation Zrotation
                  JOINT leftThumbIntermediate
                  {
                    OFFSET 0.31062601459999983 -0.08126270900000132 0.15443142000000007
                    CHANNELS 3 Yrotation Xrotation Zrotation
                    JOINT leftThumbDistal
                    {
                      OFFSET 0.21627175790000086 -0.08833193599999878 0.018771167799999988
                      CHANNELS 3 Yrotation Xrotation Zrotation
                      End Site
                      {
                        OFFSET 0.21627175790000086 -0.08833193599999878 0.018771167799999988
                      }
                    }
                  }
                }
              }
            }
          }
        }
        JOINT neck
        {
          OFFSET 0 1.5463305265074576 0
          CHANNELS 3 Yrotation Xrotation Zrotation
          JOINT head
          {
            OFFSET 0 0.8456443600000344 0
            CHANNELS 3 Yrotation Xrotation Zrotation
            JOINT leftEye
            {
              OFFSET 0.30408573140000006 0.5104519199999995 0.1276382305
              CHANNELS 3 Yrotation Xrotation Zrotation
              End Site
              {
                OFFSET 0.30408573140000006 0.5104519199999995 0.1276382305
              }
            }
            JOINT rightEye
            {
              OFFSET -0.30409491089999996 0.5104519199999995 0.1276379445
              CHANNELS 3 Yrotation Xrotation Zrotation
              End Site
              {
                OFFSET -0.30409491089999996 0.5104519199999995 0.1276379445
              }
            }
            JOINT jaw
            {
              OFFSET -3.155239131000001e-7 -0.11984121820000082 0.60178107
              CHANNELS 3 Yrotation Xrotation Zrotation
              End Site
              {
                OFFSET -3.155239131000001e-7 -0.11984121820000082 0.60178107
              }
            }
          }
        }
        JOINT rightShoulder
        {
          OFFSET -0.1807303465 1.5087829790000005 0
          CHANNELS 3 Yrotation Xrotation Zrotation
          JOINT rightUpperArm
          {
            OFFSET -0.5985063796536958 0 0
            CHANNELS 3 Yrotation Xrotation Zrotation
            JOINT rightLowerArm
            {
              OFFSET -2.2993322059002854 0 0
              CHANNELS 3 Yrotation Xrotation Zrotation
              JOINT rightHand
              {
                OFFSET -2.395045314457259 0 0
                CHANNELS 3 Yrotation Xrotation Zrotation
                JOINT rightIndexProximal
                {
                  OFFSET -0.5764487688300002 0.0441371204405987 0.17361932004999997
                  CHANNELS 3 Yrotation Xrotation Zrotation
                  JOINT rightIndexIntermediate
                  {
                    OFFSET -0.29573011380000047 -0.01934826376999843 -0.007698921482999974
                    CHANNELS 3 Yrotation Xrotation Zrotation
                    JOINT rightIndexDistal
                    {
                      OFFSET -0.19008373999999884 -0.012503266380000655 -0.0026365778999999897
                      CHANNELS 3 Yrotation Xrotation Zrotation
                      End Site
                      {
                        OFFSET -0.19008373999999884 -0.012503266380000655 -0.0026365778999999897
                      }
                    }
                  }
                }
                JOINT rightMiddleProximal
                {
                  OFFSET -0.5834852037300005 0.05211639405060153 0.02307162440000001
                  CHANNELS 3 Yrotation Xrotation Zrotation
                  JOINT rightMiddleIntermediate
                  {
                    OFFSET -0.33880114510000003 -0.019952774050000954 0.0002455003561999819
                    CHANNELS 3 Yrotation Xrotation Zrotation
                    JOINT rightMiddleDistal
                    {
                      OFFSET -0.20675694929999955 -0.012273788999999091 0.00030209124000002766
                      CHANNELS 3 Yrotation Xrotation Zrotation
                      End Site
                      {
                        OFFSET -0.20675694929999955 -0.012273788999999091 0.00030209124000002766
                      }
                    }
                  }
                }
                JOINT rightLittleProximal
                {
                  OFFSET -0.5346811737299992 -0.011214256288399227 -0.24363941305000003
                  CHANNELS 3 Yrotation Xrotation Zrotation
                  JOINT rightLittleIntermediate
                  {
                    OFFSET -0.21757715980000092 -0.011771559690000988 0.01201554387
                    CHANNELS 3 Yrotation Xrotation Zrotation
                    JOINT rightLittleDistal
                    {
                      OFFSET -0.1475201849000004 -0.00822055339600003 0.006082065407000015
                      CHANNELS 3 Yrotation Xrotation Zrotation
                      End Site
                      {
                        OFFSET -0.1475201849000004 -0.00822055339600003 0.006082065407000015
                      }
                    }
                  }
                }
                JOINT rightRingProximal
                {
                  OFFSET -0.5800810755299999 0.027657985680600072 -0.12066365025000003
                  CHANNELS 3 Yrotation Xrotation Zrotation
                  JOINT rightRingIntermediate
                  {
                    OFFSET -0.26166445029999974 -0.013623118409999302 0.011164098990000045
                    CHANNELS 3 Yrotation Xrotation Zrotation
                    JOINT rightRingDistal
                    {
                      OFFSET -0.17666387530000027 -0.009072900100000503 0.005668185599999959
                      CHANNELS 3 Yrotation Xrotation Zrotation
                      End Site
                      {
                        OFFSET -0.17666387530000027 -0.009072900100000503 0.005668185599999959
                      }
                    }
                  }
                }
                JOINT rightThumbProximal
                {
                  OFFSET -0.10997596379000074 -0.09577489355940072 0.16989765924999997
                  CHANNELS 3 Yrotation Xrotation Zrotation
                  JOINT rightThumbIntermediate
                  {
                    OFFSET -0.31036620999999986 -0.08229339117999834 0.15440884469999996
                    CHANNELS 3 Yrotation Xrotation Zrotation
                    JOINT rightThumbDistal
                    {
                      OFFSET -0.21631306399999906 -0.08825326400000111 0.018656797720000014
                      CHANNELS 3 Yrotation Xrotation Zrotation
                      End Site
                      {
                        OFFSET -0.21631306399999906 -0.08825326400000111 0.018656797720000014
                      }
                    }
                  }
                }
              }
            }
          }
        }
      }
    }
  }
}
MOTION
Frames: 10
Frame Time: 0.03333333333333333
0 11.682712981546562 0 0 0 0 0 0 -5.826343164929014 -0.3712483961610101 -3.6333298826370974 5.838118207697276 0 0 0 0 0 0 0 0 5.826343164929014 0.3712483961610101 -3.6333298826370974 -5.838118207697276 0 0 0 0 0 0 0 -4.610651315171937 0 0 3.0831277533083026 0 0 0 0 0 1.5275236235667615 0 0 0 0 0 0 0 0 0 0 0 0 0 0 0 0 0 0 0 0 0 0 0 0 0 0 0 0 0 0 0 0 0 0 0 0 0 0 0 0 0 0 0 0 0 0 0 0 0 0 0 0 0 0 0 0 1.5275236235667615 0 0 0 0 0 0 0 0 0 0 0 0 0 0 1.5275236235667615 0 0 0 0 0 0 0 0 0 0 0 0 0 0 0 0 0 0 0 0 0 0 0 0 0 0 0 0 0 0 0 0 0 0 0 0 0 0 0 0 0 0 0 0 0 0 0 0 0 0 0 0 0 0 0
0.8945910728552167 4.788677181201541 0 18.288650576814938 -26.98802230588897 18.28865239624319 0.7983209423124817 -8.987976830129941 -0.972406176812029 1.7423092840028989 16.59208555267481 6.080414647393712 -0.5141294912982757 16.662879812254474 1.4942285917519134 0 0 0 -0.36050652037178477 -11.99853765008833 4.2466612698241555 -2.9201664329755097 26.530919371245712 -6.514923694392065 0 8.998895071132818 0 0 0 0 1.6581341835024646 -3.4520726351286077 3.0267140764151192 0 8.082519469785742 0 0 0 0 0 1.5275236235667615 0 -2.4397005158736134 8.083801770824975 -25.266171473993026 -11.808925311549666 6.614579739758887 1.4180800315082516 0 0 -7.667511115392037 0 0 0 0 0 0 0 0 0 0 0 0 0 0 0 0 0 0 0 0 0 0 0 0 0 0 0 0 0 0 0 0 0 0 0 0 0 0 0 0 0 0 0 0 0 0 10.860043726458233 0 0 5.332329581820546 0 0 0 0 0 0 0 0 0 0 0 -1.806539636532607 0 14.78400948995719 -17.498749756219823 0.9752501516162795 41.89649112696421 -7.302601593408545 3.9913690812413134 4.971759496930897 0.5793340305798997 -3.291276851338437 0 0 0 0 0 0 0 0 0 0 0 0 0 0 0 0 0 0 0 0 0 0 0 0 0 0 0 0 0 0 0 0 0 0 0 0 0 0 0 0 0 0 0 0 0
1.7891821457104333 -2.1053586191434803 0 31.64203235918724 -57.79127531536446 31.64203949460117 0.8280316871323902 -18.011003180612 3.937319519701827 4.376555929542677 36.790910604650286 7.282473449150243 -0.5906834260863324 33.33332181040724 3.031053167074834 0 0 0 -0.3869324808311151 -24.002384989038227 2.6373044466870206 -8.888215306568151 56.558116711381636 -10.614787559718005 0 17.99779034447077 0 0 0 0 1.5671760639154175 -3.304558219460848 6.764009470801347 0 13.081911641467931 0 0 0 0 0 1.5275236235667615 0 -8.252394134330656 14.311484945938366 -51.49131580615958 -23.694792230735615 13.378739852762052 1.446889240556119 0 0 -15.335022343020858 0 0 0 0 0 0 0 0 0 0 0 0 0 0 0 0 0 0 0 0 0 0 0 0 0 0 0 0 0 0 0 0 0 0 0 0 0 0 0 0 0 0 0 0 0 0 20.192564171294595 0 0 10.664659762940351 0 0 0 0 0 0 0 0 0 0 0 -5.140602911722698 0 31.607569931369287 -34.60781617444381 -3.2772945094922905 84.44039999708039 -15.38780130530372 2.000736282049303 9.90322235040571 1.4406574790454703 -6.520723050659701 0 0 0 0 0 0 0 0 0 0 0 0 0 0 0 0 0 0 0 0 0 0 0 0 0 0 0 0 0 0 0 0 0 0 0 0 0 0 0 0 0 0 0 0 0
2.68377321856565 -8.999394419488503 0 85.99672744843863 -90 0 -0.0035461155643311615 -27.00141173929973 9.173303938429836 9.001303357876429 56.88770837652978 10.70933320580768 -0.004382318340145756 49.99828879596717 4.994497717275282 0 0 0 -0.0030797017046973415 -36.00168794555494 0.8267404299582295 -65.4335276321255 83.59834477476106 -65.56875713391696 0 26.996685874906582 0 0 0 0 0.1810658294568892 -4.716009996499548 10.03181626062728 0 18.081303381209423 0 0 0 0 0 1.5275236235667615 0 -16.45867066173071 17.3013842863784 -78.82466740914252 -36.00281656028417 19.999015767320984 -0.003204219091984288 0 0 -23.00253360372056 0 0 0 0 0 0 0 0 0 0 0 0 0 0 0 0 0 0 0 0 0 0 0 0 0 0 0 0 0 0 0 0 0 0 0 0 0 0 0 0 0 0 0 0 0 0 29.52508425433157 0 0 15.99698924723037 0 0 0 0 0 0 0 0 0 0 0 -8.474666291380448 0 55.175525829589425 -49.40836705121757 -16.04209861031405 128.81665364780636 -19.918715771284106 -5.321362828740242 14.781392316246666 2.5749641566966295 -9.666129169669048 0 0 0 0 0 0 0 0 0 0 0 0 0 0 0 0 0 0 0 0 0 0 0 0 0 0 0 0 0 0 0 0 0 0 0 0 0 0 0 0 0 0 0 0 0
2.68377321856565 -8.999394419488503 0 85.99672744843863 -90 0 -0.0035461155643311615 -27.00141173929973 9.173303938429836 9.434172326378416 56.764088761012836 11.081279578309728 -0.004382318340145756 49.99828879596717 4.994497717275282 0 0 0 -0.35100322418087715 -35.94492659048509 0.6112580598852064 -65.4335276321255 83.59834477476106 -65.56875713391696 0 26.996685874906582 0 0 0 0 0.1810658294568892 -4.716009996499548 10.03181626062728 0 18.081303381209423 0 0 0 0 0 1.5275236235667615 0 -16.45867066173071 17.3013842863784 -78.82467004097859 -36.161085903571745 19.99019933572647 0.1329863076753597 0.25385991324046303 -0.9268949645987973 -22.640256519835056 0 0 0 0 0 0 0 0 0 0 0 0 0 0 0 0 0 0 0 0 0 0 0 0 0 0 0 0 0 0 0 0 0 0 0 0 0 0 0 0 0 0 0 0 0 0 29.52508425433157 0 0 15.99698924723037 0 0 0 0 0 0 0 0 0 0 0 -8.474666291380448 0 55.175525829589425 -49.40836705121757 -16.04209861031405 128.7813014691593 -19.56198417618147 -5.309469212724004 14.781392316246666 2.5749641566966295 -9.666129169669048 0 0 0 0 0 0 0 0 0 0 0 0 0 0 0 0 0 0 0 0 0 0 0 0 0 0 0 0 0 0 0 0 0 0 0 0 0 0 0 0 0 0 0 0 0
2.68377321856565 -8.999394419488503 0 85.99672744843863 -90 0 -0.0035461155643311615 -27.00141173929973 9.173303938429836 9.86414456598986 56.63893719795911 11.450290069604408 -0.004382318340145756 49.99828879596717 4.994497717275282 0 0 0 -0.6989405705875494 -35.88923030825491 0.3955073526503087 -65.4335276321255 83.59834477476106 -65.56875713391696 0 26.996685874906582 0 0 0 0 0.1810658294568892 -4.716009996499548 10.03181626062728 0 18.081303381209423 0 0 0 0 0 1.5275236235667615 0 -16.458672376916113 17.3013842863784 -78.82467336606791 -36.31937018557579 19.98173406339251 0.2691947543029034 0.5019511237944083 -1.8553677631756336 -22.2819500508677 0 0 0 0 0 0 0 0 0 0 0 0 0 0 0 0 0 0 0 0 0 0 0 0 0 0 0 0 0 0 0 0 0 0 0 0 0 0 0 0 0 0 0 0 0 0 29.525086216713778 0 0 15.99698924723037 0 0 0 0 0 0 0 0 0 0 0 -8.474666291380448 0 55.175530981213704 -49.40836705121757 -16.042099871375978 128.74610897756347 -19.20524809319779 -5.297835262138147 14.781392316246666 2.5749641566966295 -9.666129169669048 0 0 0 0 0 0 0 0 0 0 0 0 0 0 0 0 0 0 0 0 0 0 0 0 0 0 0 0 0 0 0 0 0 0 0 0 0 0 0 0 0 0 0 0 0
2.68377321856565 -8.999394419488503 0 85.99672744843863 -90 0 -0.0035461155643311615 -27.00141173929973 9.173303938429836 10.291217509164785 56.51228067901796 11.816362767402621 -0.004382318340145756 49.99828879596717 4.994497717275282 0 0 0 -1.0468919989725491 -35.834592586336825 0.17949354647858295 -65.4335276321255 83.59834477476106 -65.56875713391696 0 26.996687791275253 0 0 0 0 0.1810658294568892 -4.716009996499548 10.03181626062728 0 18.081303381209423 0 0 0 0 0 1.5275236235667615 0 -16.45867409210148 17.3013842863784 -78.82467599790392 -36.47766503597847 19.973625344019105 0.4054204371142392 0.7443877249592508 -2.785365538676074 -21.927437168001457 0 0 0 0 0 0 0 0 0 0 0 0 0 0 0 0 0 0 0 0 0 0 0 0 0 0 0 0 0 0 0 0 0 0 0 0 0 0 0 0 0 0 0 0 0 0 29.525086216713778 0 0 15.99698924723037 0 0 0 0 0 0 0 0 0 0 0 -8.474666291380448 0 55.175533135530195 -49.40836705121757 -16.04210113243789 128.71106767246437 -18.84850278883369 -5.286457580911981 14.781392316246666 2.5749641566966295 -9.666129169669048 0 0 0 0 0 0 0 0 0 0 0 0 0 0 0 0 0 0 0 0 0 0 0 0 0 0 0 0 0 0 0 0 0 0 0 0 0 0 0 0 0 0 0 0 0
2.68377321856565 -8.999394419488503 0 85.99672744843863 -90 0 -0.0035461155643311615 -27.00141173929973 9.173303938429836 10.715615058744653 56.384047273418545 12.179686177088856 -0.004382318340145756 49.99828879596717 4.994498048061704 0 0 0 -1.395542379048816 -35.78091436676776 -0.03720422519275737 -65.4335276321255 83.59834477476106 -65.56875713391696 0 26.996685874906582 0 0 0 0 0.1810658294568892 -4.716009996499548 10.03181626062728 0 18.081303381209423 0 0 0 0 0 1.5275236235667615 0 -16.45867066173071 17.3013842863784 -78.82467004097859 -36.636044015273505 19.965862221973964 0.5417227162459487 0.9832087782157782 -3.7245258229657985 -21.573660113910098 0 0 0 0 0 0 0 0 0 0 0 0 0 0 0 0 0 0 0 0 0 0 0 0 0 0 0 0 0 0 0 0 0 0 0 0 0 0 0 0 0 0 0 0 0 0 29.52508425433157 0 0 15.99698924723037 0 0 0 0 0 0 0 0 0 0 0 -8.474666291380448 0 55.175530981213704 -49.40836705121757 -16.042099871375978 128.67613086820515 -18.491406843684015 -5.27532317500672 14.781392316246666 2.5749641566966295 -9.666129169669048 0 0 0 0 0 0 0 0 0 0 0 0 0 0 0 0 0 0 0 0 0 0 0 0 0 0 0 0 0 0 0 0 0 0 0 0 0 0 0 0 0 0 0 0 0
2.68377321856565 -8.999394419488503 0 85.99672744843863 -90 0 -0.0035461155643311615 -27.00141173929973 9.173303938429836 11.137109922639983 56.25433829352926 12.540064248662484 -0.004382317933795023 49.998283483212546 4.994497916319264 0 0 0 -1.7442076869388388 -35.72830724356053 -0.25415567482030915 -65.4335276321255 83.59834477476106 -65.56875713391696 0 26.996682042169347 0 0 0 0 0.1810658294568892 -4.716009996499548 10.03181626062728 0 18.081303381209423 0 0 0 0 0 1.5275236235667615 0 -16.458668946545277 17.30138607484746 -78.8246647773065 -36.79443305060505 19.958455546001467 0.678040734159183 1.2164948038109193 -4.665133130303785 -21.223387675776888 0 0 0 0 0 0 0 0 0 0 0 0 0 0 0 0 0 0 0 0 0 0 0 0 0 0 0 0 0 0 0 0 0 0 0 0 0 0 0 0 0 0 0 0 0 0 29.52508425433157 0 0 15.99698924723037 0 0 0 0 0 0 0 0 0 0 0 -8.474666291380448 0 55.17552882689731 -49.40836705121757 -16.042099871375978 128.64133948036326 -18.13430440324637 -5.264441162645807 14.781392316246666 2.5749641566966295 -9.666129169669048 0 0 0 0 0 0 0 0 0 0 0 0 0 0 0 0 0 0 0 0 0 0 0 0 0 0 0 0 0 0 0 0 0 0 0 0 0 0 0 0 0 0 0 0 0
2.68377321856565 -8.999394419488503 0 85.99672744843863 -90 0 -0.0035461155643311615 -27.00141173929973 9.173303938429836 11.555702082125899 56.12316191179294 12.897497653486719 -0.004382317527444367 49.998283483212546 4.994498247105656 0 0 0 -2.0928879263285056 -35.67676905015643 -0.4713555497137872 -65.4335276321255 83.59834477476106 -65.56875713391696 0 26.996680125800776 0 0 0 0 0.1810658294568892 -4.716009996499548 10.03181626062728 0 18.081303381209423 0 0 0 0 0 1.5275236235667615 0 -16.45866450274351 17.30138607484746 -78.8246595136346 -36.95283226088145 19.95140344919729 0.8143738292701334 1.4443436330916504 -5.607138749663336 -20.876448264870024 0 0 0 0 0 0 0 0 0 0 0 0 0 0 0 0 0 0 0 0 0 0 0 0 0 0 0 0 0 0 0 0 0 0 0 0 0 0 0 0 0 0 0 0 0 0 29.5250822919494 0 0 15.99698924723037 0 0 0 0 0 0 0 0 0 0 0 -8.474666291380448 0 55.175525829589425 -49.40836705121757 -16.042099871375978 128.60668967865735 -17.777196023390317 -5.253808605890716 14.781392316246666 2.5749639430374853 -9.666128327165847 0 0 0 0 0 0 0 0 0 0 0 0 0 0 0 0 0 0 0 0 0 0 0 0 0 0 0 0 0 0 0 0 0 0 0 0 0 0 0 0 0 0 0 0 0
